<svg xmlns="http://www.w3.org/2000/svg" viewBox="0 0 120 120" fill="none" aria-hidden="true">
  <circle cx="60" cy="60" r="58" fill="url(#g2)" opacity="0.35"/>
  <defs>
    <radialGradient id="g2" cx="50%" cy="50%" r="50%">
      <stop offset="0%" stop-color="#93C5FD"/>
      <stop offset="100%" stop-color="#93C5FD" stop-opacity="0"/>
    </radialGradient>
  </defs>
  <rect x="22" y="38" width="52" height="36" rx="3" fill="#334155"/>
  <rect x="26" y="42" width="44" height="28" rx="2" fill="#1E293B"/>
  <rect x="28" y="44" width="10" height="8" rx="1" fill="#64748B"/>
  <rect x="40" y="44" width="10" height="8" rx="1" fill="#64748B"/>
  <rect x="52" y="44" width="10" height="8" rx="1" fill="#64748B"/>
  <rect x="64" y="44" width="6" height="8" rx="1" fill="#64748B"/>
  <rect x="28" y="54" width="10" height="8" rx="1" fill="#94A3B8"/>
  <rect x="40" y="54" width="10" height="8" rx="1" fill="#64748B"/>
  <rect x="52" y="54" width="10" height="8" rx="1" fill="#64748B"/>
  <rect x="64" y="54" width="6" height="8" rx="1" fill="#64748B"/>
  <rect x="34" y="78" width="4" height="8" rx="1" fill="#475569"/>
  <rect x="78" y="32" width="32" height="52" rx="4" fill="#fff" stroke="#E2E8F0" stroke-width="1.5"/>
  <text x="84" y="44" fill="#0F2339" font-family="system-ui,sans-serif" font-size="5" font-weight="700">Price</text>
  <text x="98" y="44" fill="#16A34A" font-family="system-ui,sans-serif" font-size="6">&#10003;</text>
  <text x="84" y="52" fill="#0F2339" font-family="system-ui,sans-serif" font-size="5" font-weight="700">Growth</text>
  <text x="98" y="52" fill="#16A34A" font-family="system-ui,sans-serif" font-size="6">&#10003;</text>
  <text x="84" y="60" fill="#0F2339" font-family="system-ui,sans-serif" font-size="5" font-weight="700">Location</text>
  <text x="98" y="60" fill="#16A34A" font-family="system-ui,sans-serif" font-size="6">&#10003;</text>
  <text x="84" y="68" fill="#0F2339" font-family="system-ui,sans-serif" font-size="4.5" font-weight="700">Amenities</text>
  <text x="98" y="68" fill="#16A34A" font-family="system-ui,sans-serif" font-size="6">&#10003;</text>
</svg>
